<svg width="156" height="65" viewBox="0 0 156 65" fill="none" xmlns="http://www.w3.org/2000/svg">
<path d="M11.368 20.52C12.016 20.52 12.568 20.748 13.024 21.204C13.48 21.66 13.708 22.212 13.708 22.86C13.708 23.484 13.48 24.024 13.024 24.48C12.568 24.936 12.016 25.164 11.368 25.164C10.72 25.164 10.168 24.948 9.712 24.516C9.28 24.06 9.064 23.508 9.064 22.86C9.064 22.212 9.28 21.66 9.712 21.204C10.168 20.748 10.72 20.52 11.368 20.52ZM13.564 28.44V41.328H15.4V45H13.528C13.336 47.904 12.184 50.124 10.072 51.66C8.344 52.908 6.208 53.532 3.664 53.532C3.352 53.532 2.908 53.52 2.332 53.496L0.568 51.3V49.752C1.336 49.872 2.08 49.932 2.8 49.932C7.048 49.932 9.172 47.868 9.172 43.74V28.44H13.564Z" fill="#FF9900"/>
<path d="M23.8054 20.52C24.4534 20.52 25.0054 20.748 25.4614 21.204C25.9174 21.66 26.1454 22.212 26.1454 22.86C26.1454 23.484 25.9174 24.024 25.4614 24.48C25.0054 24.936 24.4534 25.164 23.8054 25.164C23.1814 25.164 22.6414 24.936 22.1854 24.48C21.7294 24.024 21.5014 23.484 21.5014 22.86C21.5014 22.212 21.7294 21.66 22.1854 21.204C22.6414 20.748 23.1814 20.52 23.8054 20.52ZM26.0014 28.44V41.04C26.0014 41.976 25.6894 42.84 25.0654 43.632C24.2734 44.544 23.2894 45 22.1134 45H15.1654V41.328H20.7094C20.9734 41.328 21.2014 41.232 21.3934 41.04C21.5614 40.872 21.6454 40.668 21.6454 40.428V28.44H26.0014ZM41.6682 44.856C40.6362 45.144 39.6282 45.288 38.6442 45.288C36.1002 45.288 34.0362 44.304 32.4522 42.336C31.1562 40.68 30.5082 38.724 30.5082 36.468C30.5082 33.996 31.2402 31.992 32.7042 30.456C34.2162 28.824 36.2682 28.008 38.8602 28.008C40.7802 28.008 42.3882 28.5 43.6842 29.484C45.3162 30.66 46.1322 32.388 46.1322 34.668V44.136C46.1322 47.232 45.1482 49.608 43.1802 51.264C42.0522 52.224 40.6482 52.896 38.9682 53.28C38.1282 53.472 37.1922 53.568 36.1602 53.568C35.8962 53.568 35.4762 53.544 34.9002 53.496L33.1362 51.3V49.752C33.9042 49.872 34.6602 49.932 35.4042 49.932C39.2682 49.932 41.3562 48.24 41.6682 44.856ZM41.7402 34.668C41.7402 33.636 41.3922 32.844 40.6962 32.292C40.2162 31.884 39.6042 31.68 38.8602 31.68C37.6122 31.68 36.6282 32.112 35.9082 32.976C35.2122 33.84 34.8642 35.028 34.8642 36.54C34.8642 38.1 35.2602 39.336 36.0522 40.248C36.8682 41.136 37.9722 41.58 39.3642 41.58C40.1322 41.58 40.9242 41.436 41.7402 41.148V34.668ZM60.6734 28.44V41.328H62.5094V45H60.6374C60.4454 47.88 59.3054 50.088 57.2174 51.624C55.4894 52.896 53.3654 53.532 50.8454 53.532C50.4134 53.532 49.9454 53.52 49.4414 53.496L47.6774 51.3V49.752C48.4454 49.872 49.1894 49.932 49.9094 49.932C54.1574 49.932 56.2814 47.868 56.2814 43.74V28.44H60.6734ZM73.1108 28.44V41.04C73.1108 41.976 72.7988 42.84 72.1748 43.632C71.3828 44.544 70.3988 45 69.2228 45H62.2748V41.328H67.8188C68.0828 41.328 68.3108 41.232 68.5028 41.04C68.6708 40.872 68.7548 40.668 68.7548 40.428V28.44H73.1108ZM70.1228 47.628C70.7708 47.628 71.3228 47.856 71.7788 48.312C72.2348 48.768 72.4628 49.32 72.4628 49.968C72.4628 50.616 72.2348 51.168 71.7788 51.624C71.3228 52.08 70.7708 52.308 70.1228 52.308C69.4748 52.308 68.9228 52.08 68.4668 51.624C68.0348 51.168 67.8188 50.616 67.8188 49.968C67.8188 49.32 68.0348 48.768 68.4668 48.312C68.9228 47.856 69.4748 47.628 70.1228 47.628Z" fill="#6918B4"/>
<path d="M87.5007 12.5496H101.985V16.925H87.5007V12.5496Z" fill="#FF9900"/>
<path d="M81 22.9141H104.152V27.2895H81V22.9141Z" fill="#FF9900"/>
<path d="M87.5005 33.2783H105.235V37.6538H87.5005V33.2783Z" fill="#FF9900"/>
<path d="M130.209 12.5496L125.875 25.1016L130.209 37.6536H151.937L156 12.5496H130.209Z" fill="#8446FF"/>
<path d="M102.25 12.5496L106.326 37.6536H130.208V12.5496H102.25Z" fill="#6918B4"/>
<path d="M114.217 48.5921H151.937V44.2167H114.217C111.691 44.2167 109.212 42.0904 108.804 39.5739L103.728 8.31071C102.984 3.72809 98.6369 0 94.0378 0H87.5004V4.37544H94.0378C96.5637 4.37544 99.043 6.50168 99.4516 9.01844L104.527 40.2816C105.271 44.864 109.618 48.5921 114.217 48.5921Z" fill="#FF9900"/>
<path d="M147.604 58.9838L145.978 65C142.687 65 140.02 62.3065 140.02 58.9838C140.02 55.661 142.687 52.9675 145.978 52.9675L147.604 58.9838Z" fill="#FF9900"/>
<path d="M151.937 58.9838C151.937 62.3065 149.269 65 145.978 65V52.9675C149.269 52.9675 151.937 55.661 151.937 58.9838Z" fill="#6918B4"/>
<path d="M115.842 58.9838L114.217 65C110.926 65 108.258 62.3065 108.258 58.9838C108.258 55.661 110.926 52.9675 114.217 52.9675L115.842 58.9838Z" fill="#FF9900"/>
<path d="M120.176 58.9838C120.176 62.3065 117.508 65 114.217 65V52.9675C117.508 52.9675 120.176 55.661 120.176 58.9838Z" fill="#6918B4"/>
</svg>
